0
SECTION
2
HEADER
9
$ACADVER
1
AC1006
9
$INSUNITS
70
6
0
ENDSEC
0
SECTION
2
ENTITIES
0
POLYLINE
8
0
62
255
66
1
10
0
20
0
30
0
70
8
0
VERTEX
8
0
62
255
10
0
20
0
30
0
70
32
0
VERTEX
8
0
62
255
10
0.1
20
0
30
0
70
32
0
VERTEX
8
0
62
255
10
0.2
20
0
30
0
70
32
0
VERTEX
8
0
62
255
10
0.3
20
0
30
0
70
32
0
VERTEX
8
0
62
255
10
0.4
20
0
30
0
70
32
0
VERTEX
8
0
62
255
10
0.5
20
0
30
0
70
32
0
VERTEX
8
0
62
255
10
0.6
20
0
30
0
70
32
0
VERTEX
8
0
62
255
10
0.7
20
0
30
0
70
32
0
VERTEX
8
0
62
255
10
0.8
20
0
30
0
70
32
0
VERTEX
8
0
62
255
10
0.9
20
0
30
0
70
32
0
VERTEX
8
0
62
255
10
1
20
0
30
0
70
32
0
VERTEX
8
0
62
255
10
1.1
20
0
30
0
70
32
0
VERTEX
8
0
62
255
10
1.2
20
0
30
0
70
32
0
VERTEX
8
0
62
255
10
1.3
20
0
30
0
70
32
0
VERTEX
8
0
62
255
10
1.4
20
0
30
0
70
32
0
VERTEX
8
0
62
255
10
1.5
20
0
30
0
70
32
0
VERTEX
8
0
62
255
10
1.6
20
0
30
0
70
32
0
VERTEX
8
0
62
255
10
1.7
20
0
30
0
70
32
0
VERTEX
8
0
62
255
10
1.8
20
0
30
0
70
32
0
VERTEX
8
0
62
255
10
1.9
20
0
30
0
70
32
0
VERTEX
8
0
62
255
10
2
20
0
30
0
70
32
0
VERTEX
8
0
62
255
10
2.1
20
0
30
0
70
32
0
VERTEX
8
0
62
255
10
2.2
20
0
30
0
70
32
0
VERTEX
8
0
62
255
10
2.3
20
0
30
0
70
32
0
VERTEX
8
0
62
255
10
2.4
20
0
30
0
70
32
0
VERTEX
8
0
62
255
10
2.5
20
0
30
0
70
32
0
VERTEX
8
0
62
255
10
2.6
20
0
30
0
70
32
0
VERTEX
8
0
62
255
10
2.7
20
0
30
0
70
32
0
VERTEX
8
0
62
255
10
2.8
20
0
30
0
70
32
0
VERTEX
8
0
62
255
10
2.9
20
0
30
0
70
32
0
VERTEX
8
0
62
255
10
3
20
0
30
0
70
32
0
VERTEX
8
0
62
255
10
3.1
20
0
30
0
70
32
0
VERTEX
8
0
62
255
10
3.2
20
0
30
0
70
32
0
VERTEX
8
0
62
255
10
3.3
20
0
30
0
70
32
0
VERTEX
8
0
62
255
10
3.4
20
0
30
0
70
32
0
VERTEX
8
0
62
255
10
3.5
20
0
30
0
70
32
0
VERTEX
8
0
62
255
10
3.6
20
0
30
0
70
32
0
VERTEX
8
0
62
255
10
3.7
20
0
30
0
70
32
0
VERTEX
8
0
62
255
10
3.8
20
0
30
0
70
32
0
VERTEX
8
0
62
255
10
3.9
20
0
30
0
70
32
0
VERTEX
8
0
62
255
10
4
20
0
30
0
70
32
0
VERTEX
8
0
62
255
10
4.1
20
0
30
0
70
32
0
VERTEX
8
0
62
255
10
4.2
20
0
30
0
70
32
0
VERTEX
8
0
62
255
10
4.3
20
0
30
0
70
32
0
VERTEX
8
0
62
255
10
4.4
20
0
30
0
70
32
0
VERTEX
8
0
62
255
10
4.5
20
0
30
0
70
32
0
VERTEX
8
0
62
255
10
4.6
20
0
30
0
70
32
0
VERTEX
8
0
62
255
10
4.7
20
0
30
0
70
32
0
VERTEX
8
0
62
255
10
4.8
20
0
30
0
70
32
0
VERTEX
8
0
62
255
10
4.9
20
0
30
0
70
32
0
VERTEX
8
0
62
255
10
5
20
0
30
0
70
32
0
VERTEX
8
0
62
255
10
5.1
20
0
30
0
70
32
0
VERTEX
8
0
62
255
10
5.2
20
0
30
0
70
32
0
VERTEX
8
0
62
255
10
5.3
20
0
30
0
70
32
0
VERTEX
8
0
62
255
10
5.4
20
0
30
0
70
32
0
VERTEX
8
0
62
255
10
5.5
20
0
30
0
70
32
0
VERTEX
8
0
62
255
10
5.6
20
0
30
0
70
32
0
VERTEX
8
0
62
255
10
5.7
20
0
30
0
70
32
0
VERTEX
8
0
62
255
10
5.8
20
0
30
0
70
32
0
VERTEX
8
0
62
255
10
5.9
20
0
30
0
70
32
0
VERTEX
8
0
62
255
10
6
20
0
30
0
70
32
0
VERTEX
8
0
62
255
10
6.1
20
0
30
0
70
32
0
VERTEX
8
0
62
255
10
6.2
20
0
30
0
70
32
0
VERTEX
8
0
62
255
10
6.3
20
0
30
0
70
32
0
VERTEX
8
0
62
255
10
6.4
20
0
30
0
70
32
0
VERTEX
8
0
62
255
10
6.5
20
0
30
0
70
32
0
VERTEX
8
0
62
255
10
6.6
20
0
30
0
70
32
0
VERTEX
8
0
62
255
10
6.7
20
0
30
0
70
32
0
VERTEX
8
0
62
255
10
6.8
20
0
30
0
70
32
0
VERTEX
8
0
62
255
10
6.9
20
0
30
0
70
32
0
VERTEX
8
0
62
255
10
7
20
0
30
0
70
32
0
VERTEX
8
0
62
255
10
7.1
20
0
30
0
70
32
0
VERTEX
8
0
62
255
10
7.2
20
0
30
0
70
32
0
VERTEX
8
0
62
255
10
7.3
20
0
30
0
70
32
0
VERTEX
8
0
62
255
10
7.4
20
0
30
0
70
32
0
VERTEX
8
0
62
255
10
7.5
20
0
30
0
70
32
0
VERTEX
8
0
62
255
10
7.6
20
0
30
0
70
32
0
VERTEX
8
0
62
255
10
7.7
20
0
30
0
70
32
0
VERTEX
8
0
62
255
10
7.8
20
0
30
0
70
32
0
VERTEX
8
0
62
255
10
7.9
20
0
30
0
70
32
0
VERTEX
8
0
62
255
10
8
20
0
30
0
70
32
0
VERTEX
8
0
62
255
10
8.1
20
0
30
0
70
32
0
VERTEX
8
0
62
255
10
8.2
20
0
30
0
70
32
0
VERTEX
8
0
62
255
10
8.3
20
0
30
0
70
32
0
VERTEX
8
0
62
255
10
8.4
20
0
30
0
70
32
0
VERTEX
8
0
62
255
10
8.5
20
0
30
0
70
32
0
VERTEX
8
0
62
255
10
8.6
20
0
30
0
70
32
0
VERTEX
8
0
62
255
10
8.7
20
0
30
0
70
32
0
VERTEX
8
0
62
255
10
8.8
20
0
30
0
70
32
0
VERTEX
8
0
62
255
10
8.9
20
0
30
0
70
32
0
VERTEX
8
0
62
255
10
9
20
0
30
0
70
32
0
VERTEX
8
0
62
255
10
9.1
20
0
30
0
70
32
0
VERTEX
8
0
62
255
10
9.2
20
0
30
0
70
32
0
VERTEX
8
0
62
255
10
9.3
20
0
30
0
70
32
0
VERTEX
8
0
62
255
10
9.4
20
0
30
0
70
32
0
VERTEX
8
0
62
255
10
9.5
20
0
30
0
70
32
0
VERTEX
8
0
62
255
10
9.6
20
0
30
0
70
32
0
VERTEX
8
0
62
255
10
9.7
20
0
30
0
70
32
0
VERTEX
8
0
62
255
10
9.8
20
0
30
0
70
32
0
VERTEX
8
0
62
255
10
9.9
20
0
30
0
70
32
0
VERTEX
8
0
62
255
10
10
20
0
30
0
70
32
0
VERTEX
8
0
62
255
10
10.1
20
0
30
0
70
32
0
VERTEX
8
0
62
255
10
10.2
20
0
30
0
70
32
0
VERTEX
8
0
62
255
10
10.3
20
0
30
0
70
32
0
VERTEX
8
0
62
255
10
10.4
20
0
30
0
70
32
0
VERTEX
8
0
62
255
10
10.5
20
0
30
0
70
32
0
VERTEX
8
0
62
255
10
10.6
20
0
30
0
70
32
0
VERTEX
8
0
62
255
10
10.7
20
0
30
0
70
32
0
VERTEX
8
0
62
255
10
10.8
20
0
30
0
70
32
0
VERTEX
8
0
62
255
10
10.9
20
0
30
0
70
32
0
VERTEX
8
0
62
255
10
11
20
0
30
0
70
32
0
VERTEX
8
0
62
255
10
11.1
20
0.9
30
0
70
32
0
VERTEX
8
0
62
255
10
11.2
20
1.8
30
0
70
32
0
VERTEX
8
0
62
255
10
11.3
20
2.7
30
0
70
32
0
VERTEX
8
0
62
255
10
11.4
20
3.6
30
0
70
32
0
VERTEX
8
0
62
255
10
11.5
20
4.5
30
0
70
32
0
VERTEX
8
0
62
255
10
11.6
20
5.4
30
0
70
32
0
VERTEX
8
0
62
255
10
11.7
20
6.3
30
0
70
32
0
VERTEX
8
0
62
255
10
11.8
20
7.2
30
0
70
32
0
VERTEX
8
0
62
255
10
11.9
20
8.1
30
0
70
32
0
VERTEX
8
0
62
255
10
12
20
9
30
0
70
32
0
VERTEX
8
0
62
255
10
12.1
20
9.9
30
0
70
32
0
VERTEX
8
0
62
255
10
12.2
20
10.8
30
0
70
32
0
VERTEX
8
0
62
255
10
12.3
20
11.7
30
0
70
32
0
VERTEX
8
0
62
255
10
12.4
20
12.6
30
0
70
32
0
VERTEX
8
0
62
255
10
12.5
20
13.5
30
0
70
32
0
VERTEX
8
0
62
255
10
12.6
20
14.4
30
0
70
32
0
VERTEX
8
0
62
255
10
12.7
20
15.3
30
0
70
32
0
VERTEX
8
0
62
255
10
12.8
20
16.2
30
0
70
32
0
VERTEX
8
0
62
255
10
12.9
20
17.1
30
0
70
32
0
VERTEX
8
0
62
255
10
13
20
18
30
0
70
32
0
VERTEX
8
0
62
255
10
13.1
20
18.9
30
0
70
32
0
VERTEX
8
0
62
255
10
13.2
20
19.8
30
0
70
32
0
VERTEX
8
0
62
255
10
13.3
20
20.7
30
0
70
32
0
VERTEX
8
0
62
255
10
13.4
20
21.6
30
0
70
32
0
VERTEX
8
0
62
255
10
13.5
20
22.5
30
0
70
32
0
VERTEX
8
0
62
255
10
13.6
20
23.4
30
0
70
32
0
VERTEX
8
0
62
255
10
13.7
20
24.3
30
0
70
32
0
VERTEX
8
0
62
255
10
13.8
20
25.2
30
0
70
32
0
VERTEX
8
0
62
255
10
13.9
20
26.1
30
0
70
32
0
VERTEX
8
0
62
255
10
14
20
27
30
0
70
32
0
VERTEX
8
0
62
255
10
14.1
20
27.9
30
0
70
32
0
VERTEX
8
0
62
255
10
14.2
20
28.8
30
0
70
32
0
VERTEX
8
0
62
255
10
14.3
20
29.7
30
0
70
32
0
VERTEX
8
0
62
255
10
14.4
20
30.6
30
0
70
32
0
VERTEX
8
0
62
255
10
14.5
20
31.5
30
0
70
32
0
VERTEX
8
0
62
255
10
14.6
20
32.4
30
0
70
32
0
VERTEX
8
0
62
255
10
14.7
20
33.3
30
0
70
32
0
VERTEX
8
0
62
255
10
14.8
20
34.2
30
0
70
32
0
VERTEX
8
0
62
255
10
14.9
20
35.1
30
0
70
32
0
VERTEX
8
0
62
255
10
15
20
36
30
0
70
32
0
VERTEX
8
0
62
255
10
15.1
20
36.9
30
0
70
32
0
VERTEX
8
0
62
255
10
15.2
20
37.8
30
0
70
32
0
VERTEX
8
0
62
255
10
15.3
20
38.7
30
0
70
32
0
VERTEX
8
0
62
255
10
15.4
20
39.6
30
0
70
32
0
VERTEX
8
0
62
255
10
15.5
20
40.5
30
0
70
32
0
VERTEX
8
0
62
255
10
15.6
20
41.4
30
0
70
32
0
VERTEX
8
0
62
255
10
15.7
20
42.3
30
0
70
32
0
VERTEX
8
0
62
255
10
15.8
20
43.2
30
0
70
32
0
VERTEX
8
0
62
255
10
15.9
20
44.1
30
0
70
32
0
VERTEX
8
0
62
255
10
16
20
45
30
0
70
32
0
VERTEX
8
0
62
255
10
16.1
20
45.9
30
0
70
32
0
VERTEX
8
0
62
255
10
16.2
20
46.8
30
0
70
32
0
VERTEX
8
0
62
255
10
16.3
20
47.7
30
0
70
32
0
VERTEX
8
0
62
255
10
16.4
20
48.6
30
0
70
32
0
VERTEX
8
0
62
255
10
16.5
20
49.5
30
0
70
32
0
VERTEX
8
0
62
255
10
16.6
20
50.4
30
0
70
32
0
VERTEX
8
0
62
255
10
16.7
20
51.3
30
0
70
32
0
VERTEX
8
0
62
255
10
16.8
20
52.2
30
0
70
32
0
VERTEX
8
0
62
255
10
16.9
20
53.1
30
0
70
32
0
VERTEX
8
0
62
255
10
17
20
54
30
0
70
32
0
VERTEX
8
0
62
255
10
17.1
20
54.9
30
0
70
32
0
VERTEX
8
0
62
255
10
17.2
20
55.8
30
0
70
32
0
VERTEX
8
0
62
255
10
17.3
20
56.7
30
0
70
32
0
VERTEX
8
0
62
255
10
17.4
20
57.6
30
0
70
32
0
VERTEX
8
0
62
255
10
17.5
20
58.5
30
0
70
32
0
VERTEX
8
0
62
255
10
17.6
20
59.4
30
0
70
32
0
VERTEX
8
0
62
255
10
17.7
20
60.3
30
0
70
32
0
VERTEX
8
0
62
255
10
17.8
20
61.2
30
0
70
32
0
VERTEX
8
0
62
255
10
17.9
20
62.1
30
0
70
32
0
VERTEX
8
0
62
255
10
18
20
63
30
0
70
32
0
VERTEX
8
0
62
255
10
18.1
20
63.9
30
0
70
32
0
VERTEX
8
0
62
255
10
18.2
20
64.8
30
0
70
32
0
VERTEX
8
0
62
255
10
18.3
20
65.7
30
0
70
32
0
VERTEX
8
0
62
255
10
18.4
20
66.6
30
0
70
32
0
VERTEX
8
0
62
255
10
18.5
20
67.5
30
0
70
32
0
VERTEX
8
0
62
255
10
18.6
20
68.4
30
0
70
32
0
VERTEX
8
0
62
255
10
18.7
20
69.3
30
0
70
32
0
VERTEX
8
0
62
255
10
18.8
20
70.2
30
0
70
32
0
VERTEX
8
0
62
255
10
18.9
20
71.1
30
0
70
32
0
VERTEX
8
0
62
255
10
19
20
72
30
0
70
32
0
VERTEX
8
0
62
255
10
19.1
20
72.9
30
0
70
32
0
VERTEX
8
0
62
255
10
19.2
20
73.8
30
0
70
32
0
VERTEX
8
0
62
255
10
19.3
20
74.7
30
0
70
32
0
VERTEX
8
0
62
255
10
19.4
20
75.6
30
0
70
32
0
VERTEX
8
0
62
255
10
19.5
20
76.5
30
0
70
32
0
VERTEX
8
0
62
255
10
19.6
20
77.4
30
0
70
32
0
VERTEX
8
0
62
255
10
19.7
20
78.3
30
0
70
32
0
VERTEX
8
0
62
255
10
19.8
20
79.2
30
0
70
32
0
VERTEX
8
0
62
255
10
19.9
20
80.1
30
0
70
32
0
VERTEX
8
0
62
255
10
20
20
81
30
0
70
32
0
VERTEX
8
0
62
255
10
20.1
20
81.9
30
0
70
32
0
VERTEX
8
0
62
255
10
20.2
20
82.8
30
0
70
32
0
VERTEX
8
0
62
255
10
20.3
20
83.7
30
0
70
32
0
VERTEX
8
0
62
255
10
20.4
20
84.6
30
0
70
32
0
VERTEX
8
0
62
255
10
20.5
20
85.5
30
0
70
32
0
VERTEX
8
0
62
255
10
20.6
20
86.4
30
0
70
32
0
VERTEX
8
0
62
255
10
20.7
20
87.3
30
0
70
32
0
VERTEX
8
0
62
255
10
20.8
20
88.2
30
0
70
32
0
VERTEX
8
0
62
255
10
20.9
20
89.1
30
0
70
32
0
VERTEX
8
0
62
255
10
21
20
90
30
0
70
32
0
VERTEX
8
0
62
255
10
21.1
20
90.9
30
0
70
32
0
VERTEX
8
0
62
255
10
21.2
20
91.8
30
0
70
32
0
VERTEX
8
0
62
255
10
21.3
20
92.7
30
0
70
32
0
VERTEX
8
0
62
255
10
21.4
20
93.6
30
0
70
32
0
VERTEX
8
0
62
255
10
21.5
20
94.5
30
0
70
32
0
VERTEX
8
0
62
255
10
21.6
20
95.4
30
0
70
32
0
VERTEX
8
0
62
255
10
21.7
20
96.3
30
0
70
32
0
VERTEX
8
0
62
255
10
21.8
20
97.2
30
0
70
32
0
VERTEX
8
0
62
255
10
21.9
20
98.1
30
0
70
32
0
VERTEX
8
0
62
255
10
22
20
99
30
0
70
32
0
VERTEX
8
0
62
255
10
22.1
20
99.9
30
0
70
32
0
VERTEX
8
0
62
255
10
22.2
20
100.8
30
0
70
32
0
VERTEX
8
0
62
255
10
22.3
20
101.7
30
0
70
32
0
VERTEX
8
0
62
255
10
22.4
20
102.6
30
0
70
32
0
VERTEX
8
0
62
255
10
22.5
20
103.5
30
0
70
32
0
VERTEX
8
0
62
255
10
22.6
20
104.4
30
0
70
32
0
VERTEX
8
0
62
255
10
22.7
20
105.3
30
0
70
32
0
VERTEX
8
0
62
255
10
22.8
20
106.2
30
0
70
32
0
VERTEX
8
0
62
255
10
22.9
20
107.1
30
0
70
32
0
VERTEX
8
0
62
255
10
23
20
108
30
0
70
32
0
VERTEX
8
0
62
255
10
23.1
20
108.9
30
0
70
32
0
VERTEX
8
0
62
255
10
23.2
20
109.8
30
0
70
32
0
VERTEX
8
0
62
255
10
23.3
20
110.7
30
0
70
32
0
VERTEX
8
0
62
255
10
23.4
20
111.6
30
0
70
32
0
VERTEX
8
0
62
255
10
23.5
20
112.5
30
0
70
32
0
VERTEX
8
0
62
255
10
23.6
20
113.4
30
0
70
32
0
VERTEX
8
0
62
255
10
23.7
20
114.3
30
0
70
32
0
VERTEX
8
0
62
255
10
23.8
20
115.2
30
0
70
32
0
VERTEX
8
0
62
255
10
23.9
20
116.1
30
0
70
32
0
VERTEX
8
0
62
255
10
24
20
117
30
0
70
32
0
VERTEX
8
0
62
255
10
24.1
20
117.9
30
0
70
32
0
VERTEX
8
0
62
255
10
24.2
20
118.8
30
0
70
32
0
VERTEX
8
0
62
255
10
24.3
20
119.7
30
0
70
32
0
VERTEX
8
0
62
255
10
24.4
20
120.6
30
0
70
32
0
VERTEX
8
0
62
255
10
24.5
20
121.5
30
0
70
32
0
VERTEX
8
0
62
255
10
24.6
20
122.4
30
0
70
32
0
VERTEX
8
0
62
255
10
24.7
20
123.3
30
0
70
32
0
VERTEX
8
0
62
255
10
24.8
20
124.2
30
0
70
32
0
VERTEX
8
0
62
255
10
24.9
20
125.1
30
0
70
32
0
VERTEX
8
0
62
255
10
25
20
126
30
0
70
32
0
VERTEX
8
0
62
255
10
25.1
20
126.9
30
0
70
32
0
VERTEX
8
0
62
255
10
25.2
20
127.8
30
0
70
32
0
VERTEX
8
0
62
255
10
25.3
20
128.7
30
0
70
32
0
VERTEX
8
0
62
255
10
25.4
20
129.6
30
0
70
32
0
VERTEX
8
0
62
255
10
25.5
20
130.5
30
0
70
32
0
VERTEX
8
0
62
255
10
25.6
20
131.4
30
0
70
32
0
VERTEX
8
0
62
255
10
25.7
20
132.3
30
0
70
32
0
VERTEX
8
0
62
255
10
25.8
20
133.2
30
0
70
32
0
VERTEX
8
0
62
255
10
25.9
20
134.1
30
0
70
32
0
VERTEX
8
0
62
255
10
26
20
135
30
0
70
32
0
VERTEX
8
0
62
255
10
26.1
20
134.1
30
0
70
32
0
VERTEX
8
0
62
255
10
26.2
20
133.2
30
0
70
32
0
VERTEX
8
0
62
255
10
26.3
20
132.3
30
0
70
32
0
VERTEX
8
0
62
255
10
26.4
20
131.4
30
0
70
32
0
VERTEX
8
0
62
255
10
26.5
20
130.5
30
0
70
32
0
VERTEX
8
0
62
255
10
26.6
20
129.6
30
0
70
32
0
VERTEX
8
0
62
255
10
26.7
20
128.7
30
0
70
32
0
VERTEX
8
0
62
255
10
26.8
20
127.8
30
0
70
32
0
VERTEX
8
0
62
255
10
26.9
20
126.9
30
0
70
32
0
VERTEX
8
0
62
255
10
27
20
126
30
0
70
32
0
VERTEX
8
0
62
255
10
27.1
20
125.1
30
0
70
32
0
VERTEX
8
0
62
255
10
27.2
20
124.2
30
0
70
32
0
VERTEX
8
0
62
255
10
27.3
20
123.3
30
0
70
32
0
VERTEX
8
0
62
255
10
27.4
20
122.4
30
0
70
32
0
VERTEX
8
0
62
255
10
27.5
20
121.5
30
0
70
32
0
VERTEX
8
0
62
255
10
27.6
20
120.6
30
0
70
32
0
VERTEX
8
0
62
255
10
27.7
20
119.7
30
0
70
32
0
VERTEX
8
0
62
255
10
27.8
20
118.8
30
0
70
32
0
VERTEX
8
0
62
255
10
27.9
20
117.9
30
0
70
32
0
VERTEX
8
0
62
255
10
28
20
117
30
0
70
32
0
VERTEX
8
0
62
255
10
28.1
20
116.1
30
0
70
32
0
VERTEX
8
0
62
255
10
28.2
20
115.2
30
0
70
32
0
VERTEX
8
0
62
255
10
28.3
20
114.3
30
0
70
32
0
VERTEX
8
0
62
255
10
28.4
20
113.4
30
0
70
32
0
VERTEX
8
0
62
255
10
28.5
20
112.5
30
0
70
32
0
VERTEX
8
0
62
255
10
28.6
20
111.6
30
0
70
32
0
VERTEX
8
0
62
255
10
28.7
20
110.7
30
0
70
32
0
VERTEX
8
0
62
255
10
28.8
20
109.8
30
0
70
32
0
VERTEX
8
0
62
255
10
28.9
20
108.9
30
0
70
32
0
VERTEX
8
0
62
255
10
29
20
108
30
0
70
32
0
VERTEX
8
0
62
255
10
29.1
20
107.1
30
0
70
32
0
VERTEX
8
0
62
255
10
29.2
20
106.2
30
0
70
32
0
VERTEX
8
0
62
255
10
29.3
20
105.3
30
0
70
32
0
VERTEX
8
0
62
255
10
29.4
20
104.4
30
0
70
32
0
VERTEX
8
0
62
255
10
29.5
20
103.5
30
0
70
32
0
VERTEX
8
0
62
255
10
29.6
20
102.6
30
0
70
32
0
VERTEX
8
0
62
255
10
29.7
20
101.7
30
0
70
32
0
VERTEX
8
0
62
255
10
29.8
20
100.8
30
0
70
32
0
VERTEX
8
0
62
255
10
29.9
20
99.9
30
0
70
32
0
VERTEX
8
0
62
255
10
30
20
99
30
0
70
32
0
VERTEX
8
0
62
255
10
30.1
20
98.1
30
0
70
32
0
VERTEX
8
0
62
255
10
30.2
20
97.2
30
0
70
32
0
VERTEX
8
0
62
255
10
30.3
20
96.3
30
0
70
32
0
VERTEX
8
0
62
255
10
30.4
20
95.4
30
0
70
32
0
VERTEX
8
0
62
255
10
30.5
20
94.5
30
0
70
32
0
VERTEX
8
0
62
255
10
30.6
20
93.6
30
0
70
32
0
VERTEX
8
0
62
255
10
30.7
20
92.7
30
0
70
32
0
VERTEX
8
0
62
255
10
30.8
20
91.8
30
0
70
32
0
VERTEX
8
0
62
255
10
30.9
20
90.9
30
0
70
32
0
VERTEX
8
0
62
255
10
31
20
90
30
0
70
32
0
VERTEX
8
0
62
255
10
31.1
20
89.1
30
0
70
32
0
VERTEX
8
0
62
255
10
31.2
20
88.2
30
0
70
32
0
VERTEX
8
0
62
255
10
31.3
20
87.3
30
0
70
32
0
VERTEX
8
0
62
255
10
31.4
20
86.4
30
0
70
32
0
VERTEX
8
0
62
255
10
31.5
20
85.5
30
0
70
32
0
VERTEX
8
0
62
255
10
31.6
20
84.6
30
0
70
32
0
VERTEX
8
0
62
255
10
31.7
20
83.7
30
0
70
32
0
VERTEX
8
0
62
255
10
31.8
20
82.8
30
0
70
32
0
VERTEX
8
0
62
255
10
31.9
20
81.9
30
0
70
32
0
VERTEX
8
0
62
255
10
32
20
81
30
0
70
32
0
VERTEX
8
0
62
255
10
32.1
20
80.1
30
0
70
32
0
VERTEX
8
0
62
255
10
32.2
20
79.2
30
0
70
32
0
VERTEX
8
0
62
255
10
32.3
20
78.3
30
0
70
32
0
VERTEX
8
0
62
255
10
32.4
20
77.4
30
0
70
32
0
VERTEX
8
0
62
255
10
32.5
20
76.5
30
0
70
32
0
VERTEX
8
0
62
255
10
32.6
20
75.6
30
0
70
32
0
VERTEX
8
0
62
255
10
32.7
20
74.7
30
0
70
32
0
VERTEX
8
0
62
255
10
32.8
20
73.8
30
0
70
32
0
VERTEX
8
0
62
255
10
32.9
20
72.9
30
0
70
32
0
VERTEX
8
0
62
255
10
33
20
72
30
0
70
32
0
VERTEX
8
0
62
255
10
33.1
20
71.1
30
0
70
32
0
VERTEX
8
0
62
255
10
33.2
20
70.2
30
0
70
32
0
VERTEX
8
0
62
255
10
33.3
20
69.3
30
0
70
32
0
VERTEX
8
0
62
255
10
33.4
20
68.4
30
0
70
32
0
VERTEX
8
0
62
255
10
33.5
20
67.5
30
0
70
32
0
VERTEX
8
0
62
255
10
33.6
20
66.6
30
0
70
32
0
VERTEX
8
0
62
255
10
33.7
20
65.7
30
0
70
32
0
VERTEX
8
0
62
255
10
33.8
20
64.8
30
0
70
32
0
VERTEX
8
0
62
255
10
33.9
20
63.9
30
0
70
32
0
VERTEX
8
0
62
255
10
34
20
63
30
0
70
32
0
VERTEX
8
0
62
255
10
34.1
20
62.1
30
0
70
32
0
VERTEX
8
0
62
255
10
34.2
20
61.2
30
0
70
32
0
VERTEX
8
0
62
255
10
34.3
20
60.3
30
0
70
32
0
VERTEX
8
0
62
255
10
34.4
20
59.4
30
0
70
32
0
VERTEX
8
0
62
255
10
34.5
20
58.5
30
0
70
32
0
VERTEX
8
0
62
255
10
34.6
20
57.6
30
0
70
32
0
VERTEX
8
0
62
255
10
34.7
20
56.7
30
0
70
32
0
VERTEX
8
0
62
255
10
34.8
20
55.8
30
0
70
32
0
VERTEX
8
0
62
255
10
34.9
20
54.9
30
0
70
32
0
VERTEX
8
0
62
255
10
35
20
54
30
0
70
32
0
VERTEX
8
0
62
255
10
35.1
20
53.1
30
0
70
32
0
VERTEX
8
0
62
255
10
35.2
20
52.2
30
0
70
32
0
VERTEX
8
0
62
255
10
35.3
20
51.3
30
0
70
32
0
VERTEX
8
0
62
255
10
35.4
20
50.4
30
0
70
32
0
VERTEX
8
0
62
255
10
35.5
20
49.5
30
0
70
32
0
VERTEX
8
0
62
255
10
35.6
20
48.6
30
0
70
32
0
VERTEX
8
0
62
255
10
35.7
20
47.7
30
0
70
32
0
VERTEX
8
0
62
255
10
35.8
20
46.8
30
0
70
32
0
VERTEX
8
0
62
255
10
35.9
20
45.9
30
0
70
32
0
VERTEX
8
0
62
255
10
36
20
45
30
0
70
32
0
VERTEX
8
0
62
255
10
36.1
20
45.9
30
0
70
32
0
VERTEX
8
0
62
255
10
36.2
20
46.8
30
0
70
32
0
VERTEX
8
0
62
255
10
36.3
20
47.7
30
0
70
32
0
VERTEX
8
0
62
255
10
36.4
20
48.6
30
0
70
32
0
VERTEX
8
0
62
255
10
36.5
20
49.5
30
0
70
32
0
VERTEX
8
0
62
255
10
36.6
20
50.4
30
0
70
32
0
VERTEX
8
0
62
255
10
36.7
20
51.3
30
0
70
32
0
VERTEX
8
0
62
255
10
36.8
20
52.2
30
0
70
32
0
VERTEX
8
0
62
255
10
36.9
20
53.1
30
0
70
32
0
VERTEX
8
0
62
255
10
37
20
54
30
0
70
32
0
VERTEX
8
0
62
255
10
37.1
20
54.9
30
0
70
32
0
VERTEX
8
0
62
255
10
37.2
20
55.8
30
0
70
32
0
VERTEX
8
0
62
255
10
37.3
20
56.7
30
0
70
32
0
VERTEX
8
0
62
255
10
37.4
20
57.6
30
0
70
32
0
VERTEX
8
0
62
255
10
37.5
20
58.5
30
0
70
32
0
VERTEX
8
0
62
255
10
37.6
20
59.4
30
0
70
32
0
VERTEX
8
0
62
255
10
37.7
20
60.3
30
0
70
32
0
VERTEX
8
0
62
255
10
37.8
20
61.2
30
0
70
32
0
VERTEX
8
0
62
255
10
37.9
20
62.1
30
0
70
32
0
VERTEX
8
0
62
255
10
38
20
63
30
0
70
32
0
VERTEX
8
0
62
255
10
38.1
20
63.9
30
0
70
32
0
VERTEX
8
0
62
255
10
38.2
20
64.8
30
0
70
32
0
VERTEX
8
0
62
255
10
38.3
20
65.7
30
0
70
32
0
VERTEX
8
0
62
255
10
38.4
20
66.6
30
0
70
32
0
VERTEX
8
0
62
255
10
38.5
20
67.5
30
0
70
32
0
VERTEX
8
0
62
255
10
38.6
20
68.4
30
0
70
32
0
VERTEX
8
0
62
255
10
38.7
20
69.3
30
0
70
32
0
VERTEX
8
0
62
255
10
38.8
20
70.2
30
0
70
32
0
VERTEX
8
0
62
255
10
38.9
20
71.1
30
0
70
32
0
VERTEX
8
0
62
255
10
39
20
72
30
0
70
32
0
VERTEX
8
0
62
255
10
39.1
20
72.9
30
0
70
32
0
VERTEX
8
0
62
255
10
39.2
20
73.8
30
0
70
32
0
VERTEX
8
0
62
255
10
39.3
20
74.7
30
0
70
32
0
VERTEX
8
0
62
255
10
39.4
20
75.6
30
0
70
32
0
VERTEX
8
0
62
255
10
39.5
20
76.5
30
0
70
32
0
VERTEX
8
0
62
255
10
39.6
20
77.4
30
0
70
32
0
VERTEX
8
0
62
255
10
39.7
20
78.3
30
0
70
32
0
VERTEX
8
0
62
255
10
39.8
20
79.2
30
0
70
32
0
VERTEX
8
0
62
255
10
39.9
20
80.1
30
0
70
32
0
VERTEX
8
0
62
255
10
40
20
81
30
0
70
32
0
VERTEX
8
0
62
255
10
40.1
20
81.9
30
0
70
32
0
VERTEX
8
0
62
255
10
40.2
20
82.8
30
0
70
32
0
VERTEX
8
0
62
255
10
40.3
20
83.7
30
0
70
32
0
VERTEX
8
0
62
255
10
40.4
20
84.6
30
0
70
32
0
VERTEX
8
0
62
255
10
40.5
20
85.5
30
0
70
32
0
VERTEX
8
0
62
255
10
40.6
20
86.4
30
0
70
32
0
VERTEX
8
0
62
255
10
40.7
20
87.3
30
0
70
32
0
VERTEX
8
0
62
255
10
40.8
20
88.2
30
0
70
32
0
VERTEX
8
0
62
255
10
40.9
20
89.1
30
0
70
32
0
VERTEX
8
0
62
255
10
41
20
90
30
0
70
32
0
SEQEND
8
0
0
ENDSEC
0
EOF
