0
SECTION
2
HEADER
9
$ACADVER
1
AC1006
9
$INSUNITS
70
6
0
ENDSEC
0
SECTION
2
ENTITIES
0
POLYLINE
8
0
62
255
66
1
10
0
20
0
30
0
70
8
0
VERTEX
8
0
62
255
10
0
20
0
30
0
70
32
0
VERTEX
8
0
62
255
10
0.1
20
0.8
30
0
70
32
0
VERTEX
8
0
62
255
10
0.2
20
1.6
30
0
70
32
0
VERTEX
8
0
62
255
10
0.3
20
2.4
30
0
70
32
0
VERTEX
8
0
62
255
10
0.4
20
3.2
30
0
70
32
0
VERTEX
8
0
62
255
10
0.5
20
4
30
0
70
32
0
VERTEX
8
0
62
255
10
0.6
20
4.8
30
0
70
32
0
VERTEX
8
0
62
255
10
0.7
20
5.6
30
0
70
32
0
VERTEX
8
0
62
255
10
0.8
20
6.4
30
0
70
32
0
VERTEX
8
0
62
255
10
0.9
20
7.2
30
0
70
32
0
VERTEX
8
0
62
255
10
1
20
8
30
0
70
32
0
VERTEX
8
0
62
255
10
1.1
20
8
30
0
70
32
0
VERTEX
8
0
62
255
10
1.2
20
8
30
0
70
32
0
VERTEX
8
0
62
255
10
1.3
20
8
30
0
70
32
0
VERTEX
8
0
62
255
10
1.4
20
8
30
0
70
32
0
VERTEX
8
0
62
255
10
1.5
20
8
30
0
70
32
0
VERTEX
8
0
62
255
10
1.6
20
8
30
0
70
32
0
VERTEX
8
0
62
255
10
1.7
20
8
30
0
70
32
0
VERTEX
8
0
62
255
10
1.8
20
8
30
0
70
32
0
VERTEX
8
0
62
255
10
1.9
20
8
30
0
70
32
0
VERTEX
8
0
62
255
10
2
20
8
30
0
70
32
0
VERTEX
8
0
62
255
10
2.1
20
8
30
0
70
32
0
VERTEX
8
0
62
255
10
2.2
20
8
30
0
70
32
0
VERTEX
8
0
62
255
10
2.3
20
8
30
0
70
32
0
VERTEX
8
0
62
255
10
2.4
20
8
30
0
70
32
0
VERTEX
8
0
62
255
10
2.5
20
8
30
0
70
32
0
VERTEX
8
0
62
255
10
2.6
20
8
30
0
70
32
0
VERTEX
8
0
62
255
10
2.7
20
8
30
0
70
32
0
VERTEX
8
0
62
255
10
2.8
20
8
30
0
70
32
0
VERTEX
8
0
62
255
10
2.9
20
8
30
0
70
32
0
VERTEX
8
0
62
255
10
3
20
8
30
0
70
32
0
VERTEX
8
0
62
255
10
3.1
20
8
30
0
70
32
0
VERTEX
8
0
62
255
10
3.2
20
8
30
0
70
32
0
VERTEX
8
0
62
255
10
3.3
20
8
30
0
70
32
0
VERTEX
8
0
62
255
10
3.4
20
8
30
0
70
32
0
VERTEX
8
0
62
255
10
3.5
20
8
30
0
70
32
0
VERTEX
8
0
62
255
10
3.6
20
8
30
0
70
32
0
VERTEX
8
0
62
255
10
3.7
20
8
30
0
70
32
0
VERTEX
8
0
62
255
10
3.8
20
8
30
0
70
32
0
VERTEX
8
0
62
255
10
3.9
20
8
30
0
70
32
0
VERTEX
8
0
62
255
10
4
20
8
30
0
70
32
0
VERTEX
8
0
62
255
10
4.1
20
8
30
0
70
32
0
VERTEX
8
0
62
255
10
4.2
20
8
30
0
70
32
0
VERTEX
8
0
62
255
10
4.3
20
8
30
0
70
32
0
VERTEX
8
0
62
255
10
4.4
20
8
30
0
70
32
0
VERTEX
8
0
62
255
10
4.5
20
8
30
0
70
32
0
VERTEX
8
0
62
255
10
4.6
20
8
30
0
70
32
0
VERTEX
8
0
62
255
10
4.7
20
8
30
0
70
32
0
VERTEX
8
0
62
255
10
4.8
20
8
30
0
70
32
0
VERTEX
8
0
62
255
10
4.9
20
8
30
0
70
32
0
VERTEX
8
0
62
255
10
5
20
8
30
0
70
32
0
VERTEX
8
0
62
255
10
5.1
20
8
30
0
70
32
0
VERTEX
8
0
62
255
10
5.2
20
8
30
0
70
32
0
VERTEX
8
0
62
255
10
5.3
20
8
30
0
70
32
0
VERTEX
8
0
62
255
10
5.4
20
8
30
0
70
32
0
VERTEX
8
0
62
255
10
5.5
20
8
30
0
70
32
0
VERTEX
8
0
62
255
10
5.6
20
8
30
0
70
32
0
VERTEX
8
0
62
255
10
5.7
20
8
30
0
70
32
0
VERTEX
8
0
62
255
10
5.8
20
8
30
0
70
32
0
VERTEX
8
0
62
255
10
5.9
20
8
30
0
70
32
0
VERTEX
8
0
62
255
10
6
20
8
30
0
70
32
0
VERTEX
8
0
62
255
10
6.1
20
8
30
0
70
32
0
VERTEX
8
0
62
255
10
6.2
20
8
30
0
70
32
0
VERTEX
8
0
62
255
10
6.3
20
8
30
0
70
32
0
VERTEX
8
0
62
255
10
6.4
20
8
30
0
70
32
0
VERTEX
8
0
62
255
10
6.5
20
8
30
0
70
32
0
VERTEX
8
0
62
255
10
6.6
20
8
30
0
70
32
0
VERTEX
8
0
62
255
10
6.7
20
8
30
0
70
32
0
VERTEX
8
0
62
255
10
6.8
20
8
30
0
70
32
0
VERTEX
8
0
62
255
10
6.9
20
8
30
0
70
32
0
VERTEX
8
0
62
255
10
7
20
8
30
0
70
32
0
VERTEX
8
0
62
255
10
7.1
20
8
30
0
70
32
0
VERTEX
8
0
62
255
10
7.2
20
8
30
0
70
32
0
VERTEX
8
0
62
255
10
7.3
20
8
30
0
70
32
0
VERTEX
8
0
62
255
10
7.4
20
8
30
0
70
32
0
VERTEX
8
0
62
255
10
7.5
20
8
30
0
70
32
0
VERTEX
8
0
62
255
10
7.6
20
8
30
0
70
32
0
VERTEX
8
0
62
255
10
7.7
20
8
30
0
70
32
0
VERTEX
8
0
62
255
10
7.8
20
8
30
0
70
32
0
VERTEX
8
0
62
255
10
7.9
20
8
30
0
70
32
0
VERTEX
8
0
62
255
10
8
20
8
30
0
70
32
0
VERTEX
8
0
62
255
10
8.1
20
8
30
0
70
32
0
VERTEX
8
0
62
255
10
8.2
20
8
30
0
70
32
0
VERTEX
8
0
62
255
10
8.3
20
8
30
0
70
32
0
VERTEX
8
0
62
255
10
8.4
20
8
30
0
70
32
0
VERTEX
8
0
62
255
10
8.5
20
8
30
0
70
32
0
VERTEX
8
0
62
255
10
8.6
20
8
30
0
70
32
0
VERTEX
8
0
62
255
10
8.7
20
8
30
0
70
32
0
VERTEX
8
0
62
255
10
8.8
20
8
30
0
70
32
0
VERTEX
8
0
62
255
10
8.9
20
8
30
0
70
32
0
VERTEX
8
0
62
255
10
9
20
8
30
0
70
32
0
VERTEX
8
0
62
255
10
9.1
20
8
30
0
70
32
0
VERTEX
8
0
62
255
10
9.2
20
8
30
0
70
32
0
VERTEX
8
0
62
255
10
9.3
20
8
30
0
70
32
0
VERTEX
8
0
62
255
10
9.4
20
8
30
0
70
32
0
VERTEX
8
0
62
255
10
9.5
20
8
30
0
70
32
0
VERTEX
8
0
62
255
10
9.6
20
8
30
0
70
32
0
VERTEX
8
0
62
255
10
9.7
20
8
30
0
70
32
0
VERTEX
8
0
62
255
10
9.8
20
8
30
0
70
32
0
VERTEX
8
0
62
255
10
9.9
20
8
30
0
70
32
0
VERTEX
8
0
62
255
10
10
20
8
30
0
70
32
0
VERTEX
8
0
62
255
10
10.1
20
8
30
0
70
32
0
VERTEX
8
0
62
255
10
10.2
20
8
30
0
70
32
0
VERTEX
8
0
62
255
10
10.3
20
8
30
0
70
32
0
VERTEX
8
0
62
255
10
10.4
20
8
30
0
70
32
0
VERTEX
8
0
62
255
10
10.5
20
8
30
0
70
32
0
VERTEX
8
0
62
255
10
10.6
20
8
30
0
70
32
0
VERTEX
8
0
62
255
10
10.7
20
8
30
0
70
32
0
VERTEX
8
0
62
255
10
10.8
20
8
30
0
70
32
0
VERTEX
8
0
62
255
10
10.9
20
8
30
0
70
32
0
VERTEX
8
0
62
255
10
11
20
8
30
0
70
32
0
VERTEX
8
0
62
255
10
11.1
20
8
30
0
70
32
0
VERTEX
8
0
62
255
10
11.2
20
8
30
0
70
32
0
VERTEX
8
0
62
255
10
11.3
20
8
30
0
70
32
0
VERTEX
8
0
62
255
10
11.4
20
8
30
0
70
32
0
VERTEX
8
0
62
255
10
11.5
20
8
30
0
70
32
0
VERTEX
8
0
62
255
10
11.6
20
8
30
0
70
32
0
VERTEX
8
0
62
255
10
11.7
20
8
30
0
70
32
0
VERTEX
8
0
62
255
10
11.8
20
8
30
0
70
32
0
VERTEX
8
0
62
255
10
11.9
20
8
30
0
70
32
0
VERTEX
8
0
62
255
10
12
20
8
30
0
70
32
0
VERTEX
8
0
62
255
10
12.1
20
8
30
0
70
32
0
VERTEX
8
0
62
255
10
12.2
20
8
30
0
70
32
0
VERTEX
8
0
62
255
10
12.3
20
8
30
0
70
32
0
VERTEX
8
0
62
255
10
12.4
20
8
30
0
70
32
0
VERTEX
8
0
62
255
10
12.5
20
8
30
0
70
32
0
VERTEX
8
0
62
255
10
12.6
20
8
30
0
70
32
0
VERTEX
8
0
62
255
10
12.7
20
8
30
0
70
32
0
VERTEX
8
0
62
255
10
12.8
20
8
30
0
70
32
0
VERTEX
8
0
62
255
10
12.9
20
8
30
0
70
32
0
VERTEX
8
0
62
255
10
13
20
8
30
0
70
32
0
VERTEX
8
0
62
255
10
13.1
20
8
30
0
70
32
0
VERTEX
8
0
62
255
10
13.2
20
8
30
0
70
32
0
VERTEX
8
0
62
255
10
13.3
20
8
30
0
70
32
0
VERTEX
8
0
62
255
10
13.4
20
8
30
0
70
32
0
VERTEX
8
0
62
255
10
13.5
20
8
30
0
70
32
0
VERTEX
8
0
62
255
10
13.6
20
8
30
0
70
32
0
VERTEX
8
0
62
255
10
13.7
20
8
30
0
70
32
0
VERTEX
8
0
62
255
10
13.8
20
8
30
0
70
32
0
VERTEX
8
0
62
255
10
13.9
20
8
30
0
70
32
0
VERTEX
8
0
62
255
10
14
20
8
30
0
70
32
0
VERTEX
8
0
62
255
10
14.1
20
8
30
0
70
32
0
VERTEX
8
0
62
255
10
14.2
20
8
30
0
70
32
0
VERTEX
8
0
62
255
10
14.3
20
8
30
0
70
32
0
VERTEX
8
0
62
255
10
14.4
20
8
30
0
70
32
0
VERTEX
8
0
62
255
10
14.5
20
8
30
0
70
32
0
VERTEX
8
0
62
255
10
14.6
20
8
30
0
70
32
0
VERTEX
8
0
62
255
10
14.7
20
8
30
0
70
32
0
VERTEX
8
0
62
255
10
14.8
20
8
30
0
70
32
0
VERTEX
8
0
62
255
10
14.9
20
8
30
0
70
32
0
VERTEX
8
0
62
255
10
15
20
8
30
0
70
32
0
VERTEX
8
0
62
255
10
15.1
20
8
30
0
70
32
0
VERTEX
8
0
62
255
10
15.2
20
8
30
0
70
32
0
VERTEX
8
0
62
255
10
15.3
20
8
30
0
70
32
0
VERTEX
8
0
62
255
10
15.4
20
8
30
0
70
32
0
VERTEX
8
0
62
255
10
15.5
20
8
30
0
70
32
0
VERTEX
8
0
62
255
10
15.6
20
8
30
0
70
32
0
VERTEX
8
0
62
255
10
15.7
20
8
30
0
70
32
0
VERTEX
8
0
62
255
10
15.8
20
8
30
0
70
32
0
VERTEX
8
0
62
255
10
15.9
20
8
30
0
70
32
0
VERTEX
8
0
62
255
10
16
20
8
30
0
70
32
0
VERTEX
8
0
62
255
10
16.1
20
8
30
0
70
32
0
VERTEX
8
0
62
255
10
16.2
20
8
30
0
70
32
0
VERTEX
8
0
62
255
10
16.3
20
8
30
0
70
32
0
VERTEX
8
0
62
255
10
16.4
20
8
30
0
70
32
0
VERTEX
8
0
62
255
10
16.5
20
8
30
0
70
32
0
VERTEX
8
0
62
255
10
16.6
20
8
30
0
70
32
0
VERTEX
8
0
62
255
10
16.7
20
8
30
0
70
32
0
VERTEX
8
0
62
255
10
16.8
20
8
30
0
70
32
0
VERTEX
8
0
62
255
10
16.9
20
8
30
0
70
32
0
VERTEX
8
0
62
255
10
17
20
8
30
0
70
32
0
VERTEX
8
0
62
255
10
17.1
20
8
30
0
70
32
0
VERTEX
8
0
62
255
10
17.2
20
8
30
0
70
32
0
VERTEX
8
0
62
255
10
17.3
20
8
30
0
70
32
0
VERTEX
8
0
62
255
10
17.4
20
8
30
0
70
32
0
VERTEX
8
0
62
255
10
17.5
20
8
30
0
70
32
0
VERTEX
8
0
62
255
10
17.6
20
8
30
0
70
32
0
VERTEX
8
0
62
255
10
17.7
20
8
30
0
70
32
0
VERTEX
8
0
62
255
10
17.8
20
8
30
0
70
32
0
VERTEX
8
0
62
255
10
17.9
20
8
30
0
70
32
0
VERTEX
8
0
62
255
10
18
20
8
30
0
70
32
0
VERTEX
8
0
62
255
10
18.1
20
8
30
0
70
32
0
VERTEX
8
0
62
255
10
18.2
20
8
30
0
70
32
0
VERTEX
8
0
62
255
10
18.3
20
8
30
0
70
32
0
VERTEX
8
0
62
255
10
18.4
20
8
30
0
70
32
0
VERTEX
8
0
62
255
10
18.5
20
8
30
0
70
32
0
VERTEX
8
0
62
255
10
18.6
20
8
30
0
70
32
0
VERTEX
8
0
62
255
10
18.7
20
8
30
0
70
32
0
VERTEX
8
0
62
255
10
18.8
20
8
30
0
70
32
0
VERTEX
8
0
62
255
10
18.9
20
8
30
0
70
32
0
VERTEX
8
0
62
255
10
19
20
8
30
0
70
32
0
VERTEX
8
0
62
255
10
19.1
20
8
30
0
70
32
0
VERTEX
8
0
62
255
10
19.2
20
8
30
0
70
32
0
VERTEX
8
0
62
255
10
19.3
20
8
30
0
70
32
0
VERTEX
8
0
62
255
10
19.4
20
8
30
0
70
32
0
VERTEX
8
0
62
255
10
19.5
20
8
30
0
70
32
0
VERTEX
8
0
62
255
10
19.6
20
8
30
0
70
32
0
VERTEX
8
0
62
255
10
19.7
20
8
30
0
70
32
0
VERTEX
8
0
62
255
10
19.8
20
8
30
0
70
32
0
VERTEX
8
0
62
255
10
19.9
20
8
30
0
70
32
0
VERTEX
8
0
62
255
10
20
20
8
30
0
70
32
0
VERTEX
8
0
62
255
10
20.1
20
8
30
0
70
32
0
VERTEX
8
0
62
255
10
20.2
20
8
30
0
70
32
0
VERTEX
8
0
62
255
10
20.3
20
8
30
0
70
32
0
VERTEX
8
0
62
255
10
20.4
20
8
30
0
70
32
0
VERTEX
8
0
62
255
10
20.5
20
8
30
0
70
32
0
VERTEX
8
0
62
255
10
20.6
20
8
30
0
70
32
0
VERTEX
8
0
62
255
10
20.7
20
8
30
0
70
32
0
VERTEX
8
0
62
255
10
20.8
20
8
30
0
70
32
0
VERTEX
8
0
62
255
10
20.9
20
8
30
0
70
32
0
VERTEX
8
0
62
255
10
21
20
8
30
0
70
32
0
VERTEX
8
0
62
255
10
21.1
20
8
30
0
70
32
0
VERTEX
8
0
62
255
10
21.2
20
8
30
0
70
32
0
VERTEX
8
0
62
255
10
21.3
20
8
30
0
70
32
0
VERTEX
8
0
62
255
10
21.4
20
8
30
0
70
32
0
VERTEX
8
0
62
255
10
21.5
20
8
30
0
70
32
0
VERTEX
8
0
62
255
10
21.6
20
8
30
0
70
32
0
VERTEX
8
0
62
255
10
21.7
20
8
30
0
70
32
0
VERTEX
8
0
62
255
10
21.8
20
8
30
0
70
32
0
VERTEX
8
0
62
255
10
21.9
20
8
30
0
70
32
0
VERTEX
8
0
62
255
10
22
20
8
30
0
70
32
0
VERTEX
8
0
62
255
10
22.1
20
8
30
0
70
32
0
VERTEX
8
0
62
255
10
22.2
20
8
30
0
70
32
0
VERTEX
8
0
62
255
10
22.3
20
8
30
0
70
32
0
VERTEX
8
0
62
255
10
22.4
20
8
30
0
70
32
0
VERTEX
8
0
62
255
10
22.5
20
8
30
0
70
32
0
VERTEX
8
0
62
255
10
22.6
20
8
30
0
70
32
0
VERTEX
8
0
62
255
10
22.7
20
8
30
0
70
32
0
VERTEX
8
0
62
255
10
22.8
20
8
30
0
70
32
0
VERTEX
8
0
62
255
10
22.9
20
8
30
0
70
32
0
VERTEX
8
0
62
255
10
23
20
8
30
0
70
32
0
VERTEX
8
0
62
255
10
23.1
20
8
30
0
70
32
0
VERTEX
8
0
62
255
10
23.2
20
8
30
0
70
32
0
VERTEX
8
0
62
255
10
23.3
20
8
30
0
70
32
0
VERTEX
8
0
62
255
10
23.4
20
8
30
0
70
32
0
VERTEX
8
0
62
255
10
23.5
20
8
30
0
70
32
0
VERTEX
8
0
62
255
10
23.6
20
8
30
0
70
32
0
VERTEX
8
0
62
255
10
23.7
20
8
30
0
70
32
0
VERTEX
8
0
62
255
10
23.8
20
8
30
0
70
32
0
VERTEX
8
0
62
255
10
23.9
20
8
30
0
70
32
0
VERTEX
8
0
62
255
10
24
20
8
30
0
70
32
0
VERTEX
8
0
62
255
10
24.1
20
8
30
0
70
32
0
VERTEX
8
0
62
255
10
24.2
20
8
30
0
70
32
0
VERTEX
8
0
62
255
10
24.3
20
8
30
0
70
32
0
VERTEX
8
0
62
255
10
24.4
20
8
30
0
70
32
0
VERTEX
8
0
62
255
10
24.5
20
8
30
0
70
32
0
VERTEX
8
0
62
255
10
24.6
20
8
30
0
70
32
0
VERTEX
8
0
62
255
10
24.7
20
8
30
0
70
32
0
VERTEX
8
0
62
255
10
24.8
20
8
30
0
70
32
0
VERTEX
8
0
62
255
10
24.9
20
8
30
0
70
32
0
VERTEX
8
0
62
255
10
25
20
8
30
0
70
32
0
VERTEX
8
0
62
255
10
25.1
20
8
30
0
70
32
0
VERTEX
8
0
62
255
10
25.2
20
8
30
0
70
32
0
VERTEX
8
0
62
255
10
25.3
20
8
30
0
70
32
0
VERTEX
8
0
62
255
10
25.4
20
8
30
0
70
32
0
VERTEX
8
0
62
255
10
25.5
20
8
30
0
70
32
0
VERTEX
8
0
62
255
10
25.6
20
8
30
0
70
32
0
VERTEX
8
0
62
255
10
25.7
20
8
30
0
70
32
0
VERTEX
8
0
62
255
10
25.8
20
8
30
0
70
32
0
VERTEX
8
0
62
255
10
25.9
20
8
30
0
70
32
0
VERTEX
8
0
62
255
10
26
20
8
30
0
70
32
0
VERTEX
8
0
62
255
10
26.1
20
8
30
0
70
32
0
VERTEX
8
0
62
255
10
26.2
20
8
30
0
70
32
0
VERTEX
8
0
62
255
10
26.3
20
8
30
0
70
32
0
VERTEX
8
0
62
255
10
26.4
20
8
30
0
70
32
0
VERTEX
8
0
62
255
10
26.5
20
8
30
0
70
32
0
VERTEX
8
0
62
255
10
26.6
20
8
30
0
70
32
0
VERTEX
8
0
62
255
10
26.7
20
8
30
0
70
32
0
VERTEX
8
0
62
255
10
26.8
20
8
30
0
70
32
0
VERTEX
8
0
62
255
10
26.9
20
8
30
0
70
32
0
VERTEX
8
0
62
255
10
27
20
8
30
0
70
32
0
VERTEX
8
0
62
255
10
27.1
20
8
30
0
70
32
0
VERTEX
8
0
62
255
10
27.2
20
8
30
0
70
32
0
VERTEX
8
0
62
255
10
27.3
20
8
30
0
70
32
0
VERTEX
8
0
62
255
10
27.4
20
8
30
0
70
32
0
VERTEX
8
0
62
255
10
27.5
20
8
30
0
70
32
0
VERTEX
8
0
62
255
10
27.6
20
8
30
0
70
32
0
VERTEX
8
0
62
255
10
27.7
20
8
30
0
70
32
0
VERTEX
8
0
62
255
10
27.8
20
8
30
0
70
32
0
VERTEX
8
0
62
255
10
27.9
20
8
30
0
70
32
0
VERTEX
8
0
62
255
10
28
20
8
30
0
70
32
0
VERTEX
8
0
62
255
10
28.1
20
8
30
0
70
32
0
VERTEX
8
0
62
255
10
28.2
20
8
30
0
70
32
0
VERTEX
8
0
62
255
10
28.3
20
8
30
0
70
32
0
VERTEX
8
0
62
255
10
28.4
20
8
30
0
70
32
0
VERTEX
8
0
62
255
10
28.5
20
8
30
0
70
32
0
VERTEX
8
0
62
255
10
28.6
20
8
30
0
70
32
0
VERTEX
8
0
62
255
10
28.7
20
8
30
0
70
32
0
VERTEX
8
0
62
255
10
28.8
20
8
30
0
70
32
0
VERTEX
8
0
62
255
10
28.9
20
8
30
0
70
32
0
VERTEX
8
0
62
255
10
29
20
8
30
0
70
32
0
VERTEX
8
0
62
255
10
29.1
20
8
30
0
70
32
0
VERTEX
8
0
62
255
10
29.2
20
8
30
0
70
32
0
VERTEX
8
0
62
255
10
29.3
20
8
30
0
70
32
0
VERTEX
8
0
62
255
10
29.4
20
8
30
0
70
32
0
VERTEX
8
0
62
255
10
29.5
20
8
30
0
70
32
0
VERTEX
8
0
62
255
10
29.6
20
8
30
0
70
32
0
VERTEX
8
0
62
255
10
29.7
20
8
30
0
70
32
0
VERTEX
8
0
62
255
10
29.8
20
8
30
0
70
32
0
VERTEX
8
0
62
255
10
29.9
20
8
30
0
70
32
0
VERTEX
8
0
62
255
10
30
20
8
30
0
70
32
0
VERTEX
8
0
62
255
10
30.1
20
8
30
0
70
32
0
VERTEX
8
0
62
255
10
30.2
20
8
30
0
70
32
0
VERTEX
8
0
62
255
10
30.3
20
8
30
0
70
32
0
VERTEX
8
0
62
255
10
30.4
20
8
30
0
70
32
0
VERTEX
8
0
62
255
10
30.5
20
8
30
0
70
32
0
VERTEX
8
0
62
255
10
30.6
20
8
30
0
70
32
0
VERTEX
8
0
62
255
10
30.7
20
8
30
0
70
32
0
VERTEX
8
0
62
255
10
30.8
20
8
30
0
70
32
0
VERTEX
8
0
62
255
10
30.9
20
8
30
0
70
32
0
VERTEX
8
0
62
255
10
31
20
8
30
0
70
32
0
VERTEX
8
0
62
255
10
31.1
20
8
30
0
70
32
0
VERTEX
8
0
62
255
10
31.2
20
8
30
0
70
32
0
VERTEX
8
0
62
255
10
31.3
20
8
30
0
70
32
0
VERTEX
8
0
62
255
10
31.4
20
8
30
0
70
32
0
VERTEX
8
0
62
255
10
31.5
20
8
30
0
70
32
0
VERTEX
8
0
62
255
10
31.6
20
8
30
0
70
32
0
VERTEX
8
0
62
255
10
31.7
20
8
30
0
70
32
0
VERTEX
8
0
62
255
10
31.8
20
8
30
0
70
32
0
VERTEX
8
0
62
255
10
31.9
20
8
30
0
70
32
0
VERTEX
8
0
62
255
10
32
20
8
30
0
70
32
0
VERTEX
8
0
62
255
10
32.1
20
8
30
0
70
32
0
VERTEX
8
0
62
255
10
32.2
20
8
30
0
70
32
0
VERTEX
8
0
62
255
10
32.3
20
8
30
0
70
32
0
VERTEX
8
0
62
255
10
32.4
20
8
30
0
70
32
0
VERTEX
8
0
62
255
10
32.5
20
8
30
0
70
32
0
VERTEX
8
0
62
255
10
32.6
20
8
30
0
70
32
0
VERTEX
8
0
62
255
10
32.7
20
8
30
0
70
32
0
VERTEX
8
0
62
255
10
32.8
20
8
30
0
70
32
0
VERTEX
8
0
62
255
10
32.9
20
8
30
0
70
32
0
VERTEX
8
0
62
255
10
33
20
8
30
0
70
32
0
VERTEX
8
0
62
255
10
33.1
20
8
30
0
70
32
0
VERTEX
8
0
62
255
10
33.2
20
8
30
0
70
32
0
VERTEX
8
0
62
255
10
33.3
20
8
30
0
70
32
0
VERTEX
8
0
62
255
10
33.4
20
8
30
0
70
32
0
VERTEX
8
0
62
255
10
33.5
20
8
30
0
70
32
0
VERTEX
8
0
62
255
10
33.6
20
8
30
0
70
32
0
VERTEX
8
0
62
255
10
33.7
20
8
30
0
70
32
0
VERTEX
8
0
62
255
10
33.8
20
8
30
0
70
32
0
VERTEX
8
0
62
255
10
33.9
20
8
30
0
70
32
0
VERTEX
8
0
62
255
10
34
20
8
30
0
70
32
0
VERTEX
8
0
62
255
10
34.1
20
8
30
0
70
32
0
VERTEX
8
0
62
255
10
34.2
20
8
30
0
70
32
0
VERTEX
8
0
62
255
10
34.3
20
8
30
0
70
32
0
VERTEX
8
0
62
255
10
34.4
20
8
30
0
70
32
0
VERTEX
8
0
62
255
10
34.5
20
8
30
0
70
32
0
VERTEX
8
0
62
255
10
34.6
20
8
30
0
70
32
0
VERTEX
8
0
62
255
10
34.7
20
8
30
0
70
32
0
VERTEX
8
0
62
255
10
34.8
20
8
30
0
70
32
0
VERTEX
8
0
62
255
10
34.9
20
8
30
0
70
32
0
VERTEX
8
0
62
255
10
35
20
8
30
0
70
32
0
VERTEX
8
0
62
255
10
35.1
20
8
30
0
70
32
0
VERTEX
8
0
62
255
10
35.2
20
8
30
0
70
32
0
VERTEX
8
0
62
255
10
35.3
20
8
30
0
70
32
0
VERTEX
8
0
62
255
10
35.4
20
8
30
0
70
32
0
VERTEX
8
0
62
255
10
35.5
20
8
30
0
70
32
0
VERTEX
8
0
62
255
10
35.6
20
8
30
0
70
32
0
VERTEX
8
0
62
255
10
35.7
20
8
30
0
70
32
0
VERTEX
8
0
62
255
10
35.8
20
8
30
0
70
32
0
VERTEX
8
0
62
255
10
35.9
20
8
30
0
70
32
0
VERTEX
8
0
62
255
10
36
20
8
30
0
70
32
0
VERTEX
8
0
62
255
10
36.1
20
8
30
0
70
32
0
VERTEX
8
0
62
255
10
36.2
20
8
30
0
70
32
0
VERTEX
8
0
62
255
10
36.3
20
8
30
0
70
32
0
VERTEX
8
0
62
255
10
36.4
20
8
30
0
70
32
0
VERTEX
8
0
62
255
10
36.5
20
8
30
0
70
32
0
VERTEX
8
0
62
255
10
36.6
20
8
30
0
70
32
0
VERTEX
8
0
62
255
10
36.7
20
8
30
0
70
32
0
VERTEX
8
0
62
255
10
36.8
20
8
30
0
70
32
0
VERTEX
8
0
62
255
10
36.9
20
8
30
0
70
32
0
VERTEX
8
0
62
255
10
37
20
8
30
0
70
32
0
VERTEX
8
0
62
255
10
37.1
20
8
30
0
70
32
0
VERTEX
8
0
62
255
10
37.2
20
8
30
0
70
32
0
VERTEX
8
0
62
255
10
37.3
20
8
30
0
70
32
0
VERTEX
8
0
62
255
10
37.4
20
8
30
0
70
32
0
VERTEX
8
0
62
255
10
37.5
20
8
30
0
70
32
0
VERTEX
8
0
62
255
10
37.6
20
8
30
0
70
32
0
VERTEX
8
0
62
255
10
37.7
20
8
30
0
70
32
0
VERTEX
8
0
62
255
10
37.8
20
8
30
0
70
32
0
VERTEX
8
0
62
255
10
37.9
20
8
30
0
70
32
0
VERTEX
8
0
62
255
10
38
20
8
30
0
70
32
0
VERTEX
8
0
62
255
10
38.1
20
8
30
0
70
32
0
VERTEX
8
0
62
255
10
38.2
20
8
30
0
70
32
0
VERTEX
8
0
62
255
10
38.3
20
8
30
0
70
32
0
VERTEX
8
0
62
255
10
38.4
20
8
30
0
70
32
0
VERTEX
8
0
62
255
10
38.5
20
8
30
0
70
32
0
VERTEX
8
0
62
255
10
38.6
20
8
30
0
70
32
0
VERTEX
8
0
62
255
10
38.7
20
8
30
0
70
32
0
VERTEX
8
0
62
255
10
38.8
20
8
30
0
70
32
0
VERTEX
8
0
62
255
10
38.9
20
8
30
0
70
32
0
VERTEX
8
0
62
255
10
39
20
8
30
0
70
32
0
VERTEX
8
0
62
255
10
39.1
20
8
30
0
70
32
0
VERTEX
8
0
62
255
10
39.2
20
8
30
0
70
32
0
VERTEX
8
0
62
255
10
39.3
20
8
30
0
70
32
0
VERTEX
8
0
62
255
10
39.4
20
8
30
0
70
32
0
VERTEX
8
0
62
255
10
39.5
20
8
30
0
70
32
0
VERTEX
8
0
62
255
10
39.6
20
8
30
0
70
32
0
VERTEX
8
0
62
255
10
39.7
20
8
30
0
70
32
0
VERTEX
8
0
62
255
10
39.8
20
8
30
0
70
32
0
VERTEX
8
0
62
255
10
39.9
20
8
30
0
70
32
0
VERTEX
8
0
62
255
10
40
20
8
30
0
70
32
0
VERTEX
8
0
62
255
10
40.1
20
8
30
0
70
32
0
VERTEX
8
0
62
255
10
40.2
20
8
30
0
70
32
0
VERTEX
8
0
62
255
10
40.3
20
8
30
0
70
32
0
VERTEX
8
0
62
255
10
40.4
20
8
30
0
70
32
0
VERTEX
8
0
62
255
10
40.5
20
8
30
0
70
32
0
VERTEX
8
0
62
255
10
40.6
20
8
30
0
70
32
0
VERTEX
8
0
62
255
10
40.7
20
8
30
0
70
32
0
VERTEX
8
0
62
255
10
40.8
20
8
30
0
70
32
0
VERTEX
8
0
62
255
10
40.9
20
8
30
0
70
32
0
VERTEX
8
0
62
255
10
41
20
8
30
0
70
32
0
SEQEND
8
0
0
ENDSEC
0
EOF
